<svg width="712" height="327" viewBox="0 0 712 327" fill="none" xmlns="http://www.w3.org/2000/svg">
<g filter="url(#filter0_b_57_879)">
<rect width="712" height="327" rx="25" fill="url(#paint0_linear_57_879)" fill-opacity="0.6"/>
<rect x="1" y="1" width="710" height="325" rx="24" stroke="url(#paint1_linear_57_879)" stroke-opacity="0.6" stroke-width="2"/>
</g>
<rect x="529" y="22" width="38" height="37" rx="10" fill="#1A111D" fill-opacity="0.7"/>
<path d="M544.255 35.8182H542.232L539.711 37.4141V39.3232L542.043 37.8615H542.102V46H544.255V35.8182ZM550.344 46C553.446 46 555.325 44.081 555.325 40.8991C555.325 37.7273 553.446 35.8182 550.374 35.8182H546.735V46H550.344ZM548.887 44.1555V37.6626H550.259C552.169 37.6626 553.178 38.6371 553.178 40.8991C553.178 43.1712 552.169 44.1555 550.254 44.1555H548.887Z" fill="white"/>
<rect x="577" y="22" width="42" height="37" rx="10" fill="#1A111D" fill-opacity="0.7"/>
<path d="M592.255 35.8182H590.232L587.711 37.4141V39.3232L590.043 37.8615H590.102V46H592.255V35.8182ZM597.026 46H599.124L601.058 39.343H601.138L603.077 46H605.175L608.088 35.8182H605.737L604.051 42.9077H603.962L602.107 35.8182H600.094L598.235 42.8928H598.15L596.465 35.8182H594.113L597.026 46Z" fill="#868B93"/>
<rect x="629" y="22" width="40" height="37" rx="10" fill="#1A111D" fill-opacity="0.7"/>
<path d="M644.255 35.8182H642.232L639.711 37.4141V39.3232L642.043 37.8615H642.102V46H644.255V35.8182ZM646.735 35.8182V46H648.823V39.348H648.907L651.542 45.9503H652.964L655.599 39.3729H655.683V46H657.771V35.8182H655.117L652.313 42.6591H652.193L649.389 35.8182H646.735Z" fill="#868B93"/>
<rect x="26" y="23" width="158" height="42" rx="10" fill="#1A111D" fill-opacity="0.7"/>
<g clip-path="url(#clip0_57_879)">
<path d="M50 54.5C56.0751 54.5 61 49.799 61 44C61 38.201 56.0751 33.5 50 33.5C43.9249 33.5 39 38.201 39 44C39 49.799 43.9249 54.5 50 54.5Z" fill="#8AC9FE"/>
<path d="M54.7656 34.5337C56.0566 36.2544 56.8168 38.3627 56.8168 40.6406C56.8168 46.4396 51.892 51.1406 45.8168 51.1406C44.1095 51.1406 42.4931 50.7693 41.0513 50.1067C43.0469 52.7664 46.3112 54.4998 50 54.4998C56.0751 54.4998 61 49.7988 61 43.9998C61 39.8305 58.4543 36.2288 54.7656 34.5337Z" fill="#60B7FF"/>
<path d="M49.9998 53.1429C55.2898 53.1429 59.5781 49.0495 59.5781 43.9999C59.5781 38.9504 55.2898 34.8569 49.9998 34.8569C44.7098 34.8569 40.4214 38.9504 40.4214 43.9999C40.4214 49.0495 44.7098 53.1429 49.9998 53.1429Z" fill="#EAF6FF"/>
<path d="M56.1262 36.9717C56.5726 38.114 56.8171 39.3501 56.8171 40.6409C56.8171 46.4399 51.8923 51.1409 45.8171 51.1409C45.1256 51.1409 44.4491 51.0794 43.793 50.9628C45.4648 52.3222 47.632 53.1431 50.0002 53.1431C55.2902 53.1431 59.5786 49.0496 59.5786 44.0001C59.5786 41.1746 58.2357 38.6488 56.1262 36.9717Z" fill="#D8ECFE"/>
<path d="M49.8709 38.5138L46.7816 43.2694C46.7443 43.3268 46.7625 43.4022 46.8223 43.4383L49.9738 45.3382C50.0163 45.3639 50.0706 45.3636 50.1128 45.3374L53.1788 43.4391C53.2379 43.4025 53.2553 43.3274 53.2178 43.2704L50.0897 38.5132C50.039 38.4361 49.9212 38.4364 49.8709 38.5138Z" fill="#60B7FF"/>
<path d="M50.0874 46.9835L52.7953 45.3759C52.9127 45.3062 53.0471 45.4378 52.971 45.548L50.2427 49.5041C50.1929 49.5762 50.0829 49.5783 50.0302 49.5081L47.0779 45.5758C46.9959 45.4667 47.1303 45.329 47.2501 45.3993L49.9518 46.9839C49.9934 47.0083 50.0459 47.0082 50.0874 46.9835Z" fill="#60B7FF"/>
</g>
<path d="M71.6392 40.1911H75.647V51H78.3828V40.1911H82.3906V37.9091H71.6392V40.1911ZM84.1101 51H86.8331V41.1818H84.1101V51ZM85.478 39.9162C86.2898 39.9162 86.9545 39.2962 86.9545 38.5355C86.9545 37.7812 86.2898 37.1612 85.478 37.1612C84.6726 37.1612 84.0078 37.7812 84.0078 38.5355C84.0078 39.2962 84.6726 39.9162 85.478 39.9162ZM89.0144 51H91.7374V45.1065C91.7374 44.0199 92.4277 43.2976 93.3354 43.2976C94.2303 43.2976 94.8311 43.9112 94.8311 44.8764V51H97.4711V45.0043C97.4711 43.9879 98.0527 43.2976 99.0435 43.2976C99.9128 43.2976 100.565 43.8409 100.565 44.9339V51H103.281V44.397C103.281 42.2685 102.016 41.054 100.188 41.054C98.7495 41.054 97.6309 41.7891 97.2282 42.9141H97.1259C96.8127 41.7763 95.8091 41.054 94.4604 41.054C93.1373 41.054 92.1337 41.7571 91.7246 42.9141H91.6096V41.1818H89.0144V51ZM109.907 51.1918C112.336 51.1918 113.972 50.0092 114.356 48.1875L111.837 48.0213C111.562 48.7692 110.859 49.1591 109.952 49.1591C108.59 49.1591 107.727 48.2578 107.727 46.794V46.7876H114.413V46.0398C114.413 42.7031 112.393 41.054 109.798 41.054C106.909 41.054 105.036 43.1058 105.036 46.1357C105.036 49.2486 106.883 51.1918 109.907 51.1918ZM107.727 45.1001C107.785 43.9815 108.635 43.0866 109.843 43.0866C111.025 43.0866 111.844 43.9304 111.85 45.1001H107.727ZM118.913 37.9091H116.19V51H118.913V37.9091ZM121.094 51H123.817V41.1818H121.094V51ZM122.462 39.9162C123.274 39.9162 123.939 39.2962 123.939 38.5355C123.939 37.7812 123.274 37.1612 122.462 37.1612C121.657 37.1612 120.992 37.7812 120.992 38.5355C120.992 39.2962 121.657 39.9162 122.462 39.9162ZM128.722 45.3239C128.728 44.0582 129.482 43.3168 130.582 43.3168C131.675 43.3168 132.333 44.0327 132.327 45.2344V51H135.05V44.7486C135.05 42.4602 133.708 41.054 131.662 41.054C130.205 41.054 129.15 41.7699 128.709 42.9141H128.594V41.1818H125.999V51H128.722V45.3239ZM141.67 51.1918C144.099 51.1918 145.736 50.0092 146.119 48.1875L143.601 48.0213C143.326 48.7692 142.623 49.1591 141.715 49.1591C140.354 49.1591 139.491 48.2578 139.491 46.794V46.7876H146.177V46.0398C146.177 42.7031 144.157 41.054 141.562 41.054C138.673 41.054 136.8 43.1058 136.8 46.1357C136.8 49.2486 138.647 51.1918 141.67 51.1918ZM139.491 45.1001C139.548 43.9815 140.398 43.0866 141.607 43.0866C142.789 43.0866 143.607 43.9304 143.614 45.1001H139.491Z" fill="white"/>
<defs>
<filter id="filter0_b_57_879" x="-140" y="-140" width="992" height="607" filterUnits="userSpaceOnUse" color-interpolation-filters="sRGB">
<feFlood flood-opacity="0" result="BackgroundImageFix"/>
<feGaussianBlur in="BackgroundImage" stdDeviation="70"/>
<feComposite in2="SourceAlpha" operator="in" result="effect1_backgroundBlur_57_879"/>
<feBlend mode="normal" in="SourceGraphic" in2="effect1_backgroundBlur_57_879" result="shape"/>
</filter>
<linearGradient id="paint0_linear_57_879" x1="356" y1="0" x2="600.757" y2="395.792" gradientUnits="userSpaceOnUse">
<stop stop-color="white" stop-opacity="0.2"/>
<stop offset="1" stop-color="white" stop-opacity="0"/>
</linearGradient>
<linearGradient id="paint1_linear_57_879" x1="7.35771" y1="7.35466" x2="711.901" y2="327.219" gradientUnits="userSpaceOnUse">
<stop stop-color="white" stop-opacity="0.5"/>
<stop offset="1" stop-color="white" stop-opacity="0.3"/>
</linearGradient>
<clipPath id="clip0_57_879">
<rect width="22" height="21" fill="white" transform="translate(39 33.5)"/>
</clipPath>
</defs>
</svg>
