<svg width="122" height="13" viewBox="0 0 122 13" fill="none" xmlns="http://www.w3.org/2000/svg">
<path d="M0.552 11.408L6.696 0.799999H8.408L10.856 11.824L9.4 12.16L8.728 8.96H3.544L1.768 12.128L0.552 11.408ZM4.264 7.68H8.456L7.32 2.288L4.264 7.68ZM12.4894 3.984H13.9614L14.7294 1.36H15.8334L15.3694 3.984H17.6734L17.4654 5.232H15.1454L14.4734 9.12C14.4307 9.33333 14.4094 9.536 14.4094 9.728C14.4094 10.1013 14.516 10.3947 14.7294 10.608C14.9534 10.8107 15.252 10.912 15.6254 10.912C15.9347 10.912 16.1907 10.8693 16.3934 10.784C16.6067 10.688 16.804 10.592 16.9854 10.496L17.1614 11.744C16.9587 11.8613 16.7027 11.9627 16.3934 12.048C16.0947 12.144 15.7587 12.192 15.3854 12.192C15.0867 12.192 14.7934 12.144 14.5054 12.048C14.2174 11.9627 13.9614 11.8293 13.7374 11.648C13.5134 11.456 13.332 11.2107 13.1934 10.912C13.0547 10.6133 12.9854 10.256 12.9854 9.84C12.9854 9.72267 12.9907 9.60533 13.0014 9.488C13.012 9.36 13.028 9.216 13.0494 9.056L13.7054 5.232H12.2814L12.4894 3.984ZM23.7283 0.943999L25.2483 0.624L27.1843 10.336L32.2723 0.672L33.6163 1.408L27.8083 12H26.0643L23.7283 0.943999ZM35.1534 0.927999C35.5907 0.831999 36.028 0.757333 36.4654 0.704C36.9027 0.64 37.4414 0.608 38.0814 0.608C38.924 0.608 39.6494 0.746666 40.2574 1.024C40.8654 1.29067 41.3614 1.65333 41.7454 2.112C42.1294 2.57067 42.412 3.09867 42.5934 3.696C42.7747 4.28267 42.8654 4.90133 42.8654 5.552C42.8654 6.512 42.716 7.40267 42.4174 8.224C42.1294 9.03467 41.7134 9.73333 41.1694 10.32C40.6254 10.9067 39.964 11.3653 39.1854 11.696C38.4067 12.0267 37.532 12.192 36.5614 12.192C35.8787 12.192 35.2707 12.144 34.7374 12.048C34.204 11.9627 33.7187 11.84 33.2814 11.68L35.1534 0.927999ZM37.9534 1.888C37.676 1.888 37.4147 1.904 37.1694 1.936C36.924 1.95733 36.6947 1.99467 36.4814 2.048L34.9774 10.672C35.2227 10.736 35.484 10.7893 35.7614 10.832C36.0387 10.864 36.3374 10.88 36.6574 10.88C37.3507 10.88 37.98 10.7573 38.5454 10.512C39.1214 10.256 39.612 9.89867 40.0174 9.44C40.4227 8.98133 40.7374 8.432 40.9614 7.792C41.1854 7.152 41.2974 6.448 41.2974 5.68C41.2974 5.17867 41.228 4.69867 41.0894 4.24C40.9614 3.78133 40.7587 3.38133 40.4814 3.04C40.2147 2.688 39.868 2.41067 39.4414 2.208C39.0254 1.99467 38.5294 1.888 37.9534 1.888ZM47.7148 10.912C48.1948 10.912 48.6214 10.8213 48.9948 10.64C49.3681 10.4587 49.6881 10.208 49.9548 9.888C50.2214 9.568 50.4241 9.19467 50.5628 8.768C50.7014 8.34133 50.7708 7.87733 50.7708 7.376C50.7708 7.01333 50.7121 6.672 50.5948 6.352C50.4881 6.032 50.3281 5.75467 50.1148 5.52C49.9121 5.28533 49.6614 5.104 49.3628 4.976C49.0641 4.83733 48.7228 4.768 48.3388 4.768C47.8694 4.768 47.4428 4.85867 47.0588 5.04C46.6854 5.22133 46.3654 5.472 46.0988 5.792C45.8321 6.112 45.6294 6.49067 45.4908 6.928C45.3521 7.35467 45.2828 7.81333 45.2828 8.304C45.2828 8.66667 45.3361 9.008 45.4428 9.328C45.5494 9.648 45.7041 9.92533 45.9068 10.16C46.1201 10.3947 46.3761 10.5813 46.6748 10.72C46.9841 10.848 47.3308 10.912 47.7148 10.912ZM47.6668 12.192C47.0694 12.192 46.5308 12.1013 46.0508 11.92C45.5814 11.728 45.1814 11.4667 44.8508 11.136C44.5201 10.8053 44.2641 10.4107 44.0828 9.952C43.9014 9.48267 43.8108 8.976 43.8108 8.432C43.8108 7.73867 43.9174 7.09333 44.1308 6.496C44.3441 5.888 44.6481 5.36533 45.0428 4.928C45.4481 4.48 45.9334 4.128 46.4988 3.872C47.0641 3.616 47.6934 3.488 48.3868 3.488C48.9734 3.488 49.5068 3.584 49.9868 3.776C50.4668 3.95733 50.8721 4.21333 51.2028 4.544C51.5334 4.87467 51.7894 5.27467 51.9708 5.744C52.1521 6.20267 52.2428 6.704 52.2428 7.248C52.2428 7.94133 52.1361 8.592 51.9228 9.2C51.7094 9.79733 51.4001 10.32 50.9948 10.768C50.6001 11.2053 50.1201 11.552 49.5548 11.808C48.9894 12.064 48.3601 12.192 47.6668 12.192ZM59.7241 5.36C59.4468 5.18933 59.1535 5.05067 58.8441 4.944C58.5455 4.82667 58.2095 4.768 57.8361 4.768C57.3881 4.768 56.9828 4.85867 56.6201 5.04C56.2575 5.22133 55.9481 5.472 55.6921 5.792C55.4361 6.10133 55.2388 6.46933 55.1001 6.896C54.9615 7.32267 54.8921 7.78133 54.8921 8.272C54.8921 9.08267 55.0948 9.728 55.5001 10.208C55.9055 10.6773 56.4601 10.912 57.1641 10.912C57.5695 10.912 57.9268 10.864 58.2361 10.768C58.5455 10.672 58.8281 10.56 59.0841 10.432L59.2601 11.696C58.9935 11.8133 58.6681 11.9253 58.2841 12.032C57.9108 12.1387 57.4575 12.192 56.9241 12.192C56.4015 12.192 55.9268 12.1067 55.5001 11.936C55.0735 11.7547 54.7055 11.4987 54.3961 11.168C54.0868 10.8373 53.8468 10.448 53.6761 10C53.5055 9.54133 53.4201 9.02933 53.4201 8.464C53.4201 7.792 53.5215 7.15733 53.7241 6.56C53.9375 5.96267 54.2415 5.43467 54.6361 4.976C55.0308 4.51733 55.5055 4.15467 56.0601 3.888C56.6148 3.62133 57.2441 3.488 57.9481 3.488C58.4495 3.488 58.8921 3.552 59.2761 3.68C59.6601 3.79733 60.0068 3.94667 60.3161 4.128L59.7241 5.36ZM66.6035 5.488C66.2942 5.27467 65.9475 5.088 65.5635 4.928C65.1902 4.768 64.7635 4.688 64.2835 4.688C63.7715 4.688 63.3768 4.77333 63.0995 4.944C62.8328 5.11467 62.6995 5.33867 62.6995 5.616C62.6995 5.744 62.7208 5.86133 62.7635 5.968C62.8168 6.07467 62.9022 6.18667 63.0195 6.304C63.1475 6.41067 63.3182 6.528 63.5315 6.656C63.7448 6.784 64.0168 6.93333 64.3475 7.104C65.0835 7.47733 65.6222 7.856 65.9635 8.24C66.3155 8.61333 66.4915 9.088 66.4915 9.664C66.4915 10.0907 66.4062 10.464 66.2355 10.784C66.0648 11.0933 65.8248 11.3547 65.5155 11.568C65.2168 11.7707 64.8648 11.9253 64.4595 12.032C64.0542 12.1387 63.6168 12.192 63.1475 12.192C62.4968 12.192 61.9208 12.112 61.4195 11.952C60.9288 11.7813 60.5022 11.5627 60.1395 11.296L60.9555 10.112C61.2435 10.3467 61.5795 10.544 61.9635 10.704C62.3582 10.864 62.7955 10.944 63.2755 10.944C63.8195 10.944 64.2408 10.8427 64.5395 10.64C64.8488 10.4373 65.0035 10.1867 65.0035 9.888C65.0035 9.74933 64.9768 9.62133 64.9235 9.504C64.8808 9.376 64.7955 9.248 64.6675 9.12C64.5395 8.992 64.3635 8.864 64.1395 8.736C63.9262 8.59733 63.6542 8.44267 63.3235 8.272C62.9182 8.06933 62.5822 7.87733 62.3155 7.696C62.0595 7.504 61.8515 7.30667 61.6915 7.104C61.5422 6.90133 61.4355 6.688 61.3715 6.464C61.3075 6.22933 61.2755 5.97333 61.2755 5.696C61.2755 5.376 61.3502 5.08267 61.4995 4.816C61.6488 4.53867 61.8568 4.304 62.1235 4.112C62.3902 3.92 62.7102 3.77067 63.0835 3.664C63.4568 3.54667 63.8675 3.488 64.3155 3.488C64.9128 3.488 65.4462 3.568 65.9155 3.728C66.3955 3.87733 66.8168 4.05867 67.1795 4.272L66.6035 5.488ZM74.1738 12L72.9258 3.792L74.3178 3.6L75.2618 10.4L78.2858 4.272H79.8058L80.6378 10.4L83.9978 3.6L85.1818 4.208L81.1978 12H79.6138L78.7818 5.888L75.7578 12H74.1738ZM88.9104 12.192C88.377 12.192 87.8917 12.1067 87.4544 11.936C87.017 11.7547 86.6384 11.504 86.3184 11.184C86.009 10.8533 85.7637 10.4533 85.5824 9.984C85.4117 9.51467 85.3264 8.98667 85.3264 8.4C85.3264 7.73867 85.433 7.10933 85.6464 6.512C85.8597 5.91467 86.1584 5.392 86.5424 4.944C86.937 4.496 87.4117 4.144 87.9664 3.888C88.521 3.62133 89.1397 3.488 89.8224 3.488C90.281 3.488 90.6917 3.55733 91.0544 3.696C91.417 3.83467 91.721 4.016 91.9664 4.24C92.2224 4.464 92.4144 4.72533 92.5424 5.024C92.681 5.32267 92.7504 5.632 92.7504 5.952C92.7504 6.54933 92.6064 7.03467 92.3184 7.408C92.041 7.78133 91.689 8.08 91.2624 8.304C90.8357 8.51733 90.3664 8.66667 89.8544 8.752C89.3424 8.82667 88.857 8.864 88.3984 8.864C88.1104 8.864 87.8224 8.85333 87.5344 8.832C87.257 8.8 87.0117 8.768 86.7984 8.736C86.8837 9.44 87.129 9.97867 87.5344 10.352C87.9504 10.7253 88.489 10.912 89.1504 10.912C89.6837 10.912 90.1584 10.8427 90.5744 10.704C90.9904 10.5653 91.3424 10.4267 91.6304 10.288L91.7584 11.568C91.4384 11.7173 91.033 11.8613 90.5424 12C90.0624 12.128 89.5184 12.192 88.9104 12.192ZM89.7104 4.704C89.337 4.704 88.985 4.77867 88.6544 4.928C88.3344 5.06667 88.0464 5.264 87.7904 5.52C87.545 5.776 87.337 6.08 87.1664 6.432C87.0064 6.784 86.8944 7.168 86.8304 7.584C87.0757 7.63733 87.321 7.67467 87.5664 7.696C87.8117 7.71733 88.089 7.728 88.3984 7.728C89.305 7.728 90.0144 7.60533 90.5264 7.36C91.049 7.104 91.3104 6.672 91.3104 6.064C91.3104 5.69067 91.161 5.37067 90.8624 5.104C90.5744 4.83733 90.1904 4.704 89.7104 4.704ZM98.4045 8.72C98.4045 7.952 98.5325 7.248 98.7885 6.608C99.0552 5.95733 99.4232 5.40267 99.8925 4.944C100.362 4.48533 100.922 4.128 101.573 3.872C102.223 3.616 102.933 3.488 103.701 3.488C104.33 3.488 104.879 3.552 105.349 3.68C105.829 3.808 106.223 3.936 106.533 4.064L105.525 9.744C105.514 9.79733 105.503 9.86133 105.493 9.936C105.493 10 105.493 10.0693 105.493 10.144C105.493 10.4427 105.578 10.656 105.749 10.784C105.919 10.9013 106.143 10.96 106.421 10.96L105.925 12.08C105.349 12.08 104.906 11.9413 104.597 11.664C104.298 11.3867 104.149 10.944 104.149 10.336C103.85 10.848 103.471 11.2853 103.013 11.648C102.565 12.0107 102.037 12.192 101.429 12.192C101.034 12.192 100.655 12.112 100.293 11.952C99.9298 11.792 99.6045 11.5627 99.3165 11.264C99.0392 10.9653 98.8152 10.6027 98.6445 10.176C98.4845 9.73867 98.4045 9.25333 98.4045 8.72ZM104.949 4.912C104.746 4.848 104.533 4.8 104.309 4.768C104.095 4.72533 103.834 4.704 103.525 4.704C102.97 4.704 102.469 4.8 102.021 4.992C101.573 5.184 101.189 5.45067 100.869 5.792C100.549 6.13333 100.303 6.53867 100.133 7.008C99.9618 7.47733 99.8765 7.98933 99.8765 8.544C99.8765 8.928 99.9298 9.26933 100.037 9.568C100.154 9.856 100.303 10.1013 100.485 10.304C100.666 10.5067 100.869 10.6613 101.093 10.768C101.327 10.864 101.567 10.912 101.812 10.912C102.133 10.912 102.437 10.8267 102.725 10.656C103.023 10.4853 103.29 10.2453 103.525 9.936C103.759 9.616 103.962 9.24267 104.133 8.816C104.303 8.37867 104.431 7.904 104.517 7.392L104.949 4.912ZM109.169 6.016C109.18 5.96267 109.185 5.904 109.185 5.84C109.196 5.76533 109.201 5.69067 109.201 5.616C109.201 5.31733 109.116 5.10933 108.945 4.992C108.775 4.864 108.551 4.8 108.273 4.8L108.769 3.68C109.345 3.68 109.783 3.81333 110.081 4.08C110.38 4.34667 110.529 4.752 110.529 5.296V5.616C110.839 4.848 111.233 4.304 111.713 3.984C112.204 3.65333 112.759 3.488 113.377 3.488C113.623 3.488 113.831 3.50933 114.001 3.552C114.183 3.584 114.332 3.62667 114.449 3.68L113.809 5.088C113.681 5.03467 113.548 4.99733 113.409 4.976C113.271 4.95467 113.111 4.944 112.929 4.944C112.641 4.944 112.353 5.01867 112.065 5.168C111.777 5.30667 111.505 5.54667 111.249 5.888C110.993 6.22933 110.759 6.67733 110.545 7.232C110.332 7.78667 110.156 8.47467 110.017 9.296L109.553 12H108.113L109.169 6.016ZM117.785 12.192C117.252 12.192 116.767 12.1067 116.329 11.936C115.892 11.7547 115.513 11.504 115.193 11.184C114.884 10.8533 114.639 10.4533 114.457 9.984C114.287 9.51467 114.201 8.98667 114.201 8.4C114.201 7.73867 114.308 7.10933 114.521 6.512C114.735 5.91467 115.033 5.392 115.417 4.944C115.812 4.496 116.287 4.144 116.841 3.888C117.396 3.62133 118.015 3.488 118.697 3.488C119.156 3.488 119.567 3.55733 119.929 3.696C120.292 3.83467 120.596 4.016 120.841 4.24C121.097 4.464 121.289 4.72533 121.417 5.024C121.556 5.32267 121.625 5.632 121.625 5.952C121.625 6.54933 121.481 7.03467 121.193 7.408C120.916 7.78133 120.564 8.08 120.137 8.304C119.711 8.51733 119.241 8.66667 118.729 8.752C118.217 8.82667 117.732 8.864 117.273 8.864C116.985 8.864 116.697 8.85333 116.409 8.832C116.132 8.8 115.887 8.768 115.673 8.736C115.759 9.44 116.004 9.97867 116.409 10.352C116.825 10.7253 117.364 10.912 118.025 10.912C118.559 10.912 119.033 10.8427 119.449 10.704C119.865 10.5653 120.217 10.4267 120.505 10.288L120.633 11.568C120.313 11.7173 119.908 11.8613 119.417 12C118.937 12.128 118.393 12.192 117.785 12.192ZM118.585 4.704C118.212 4.704 117.86 4.77867 117.529 4.928C117.209 5.06667 116.921 5.264 116.665 5.52C116.42 5.776 116.212 6.08 116.041 6.432C115.881 6.784 115.769 7.168 115.705 7.584C115.951 7.63733 116.196 7.67467 116.441 7.696C116.687 7.71733 116.964 7.728 117.273 7.728C118.18 7.728 118.889 7.60533 119.401 7.36C119.924 7.104 120.185 6.672 120.185 6.064C120.185 5.69067 120.036 5.37067 119.737 5.104C119.449 4.83733 119.065 4.704 118.585 4.704Z" fill="#FFD100"/>
<path d="M0.552 11.408L6.696 0.799999H8.408L10.856 11.824L9.4 12.16L8.728 8.96H3.544L1.768 12.128L0.552 11.408ZM4.264 7.68H8.456L7.32 2.288L4.264 7.68ZM12.4894 3.984H13.9614L14.7294 1.36H15.8334L15.3694 3.984H17.6734L17.4654 5.232H15.1454L14.4734 9.12C14.4307 9.33333 14.4094 9.536 14.4094 9.728C14.4094 10.1013 14.516 10.3947 14.7294 10.608C14.9534 10.8107 15.252 10.912 15.6254 10.912C15.9347 10.912 16.1907 10.8693 16.3934 10.784C16.6067 10.688 16.804 10.592 16.9854 10.496L17.1614 11.744C16.9587 11.8613 16.7027 11.9627 16.3934 12.048C16.0947 12.144 15.7587 12.192 15.3854 12.192C15.0867 12.192 14.7934 12.144 14.5054 12.048C14.2174 11.9627 13.9614 11.8293 13.7374 11.648C13.5134 11.456 13.332 11.2107 13.1934 10.912C13.0547 10.6133 12.9854 10.256 12.9854 9.84C12.9854 9.72267 12.9907 9.60533 13.0014 9.488C13.012 9.36 13.028 9.216 13.0494 9.056L13.7054 5.232H12.2814L12.4894 3.984ZM23.7283 0.943999L25.2483 0.624L27.1843 10.336L32.2723 0.672L33.6163 1.408L27.8083 12H26.0643L23.7283 0.943999ZM35.1534 0.927999C35.5907 0.831999 36.028 0.757333 36.4654 0.704C36.9027 0.64 37.4414 0.608 38.0814 0.608C38.924 0.608 39.6494 0.746666 40.2574 1.024C40.8654 1.29067 41.3614 1.65333 41.7454 2.112C42.1294 2.57067 42.412 3.09867 42.5934 3.696C42.7747 4.28267 42.8654 4.90133 42.8654 5.552C42.8654 6.512 42.716 7.40267 42.4174 8.224C42.1294 9.03467 41.7134 9.73333 41.1694 10.32C40.6254 10.9067 39.964 11.3653 39.1854 11.696C38.4067 12.0267 37.532 12.192 36.5614 12.192C35.8787 12.192 35.2707 12.144 34.7374 12.048C34.204 11.9627 33.7187 11.84 33.2814 11.68L35.1534 0.927999ZM37.9534 1.888C37.676 1.888 37.4147 1.904 37.1694 1.936C36.924 1.95733 36.6947 1.99467 36.4814 2.048L34.9774 10.672C35.2227 10.736 35.484 10.7893 35.7614 10.832C36.0387 10.864 36.3374 10.88 36.6574 10.88C37.3507 10.88 37.98 10.7573 38.5454 10.512C39.1214 10.256 39.612 9.89867 40.0174 9.44C40.4227 8.98133 40.7374 8.432 40.9614 7.792C41.1854 7.152 41.2974 6.448 41.2974 5.68C41.2974 5.17867 41.228 4.69867 41.0894 4.24C40.9614 3.78133 40.7587 3.38133 40.4814 3.04C40.2147 2.688 39.868 2.41067 39.4414 2.208C39.0254 1.99467 38.5294 1.888 37.9534 1.888ZM47.7148 10.912C48.1948 10.912 48.6214 10.8213 48.9948 10.64C49.3681 10.4587 49.6881 10.208 49.9548 9.888C50.2214 9.568 50.4241 9.19467 50.5628 8.768C50.7014 8.34133 50.7708 7.87733 50.7708 7.376C50.7708 7.01333 50.7121 6.672 50.5948 6.352C50.4881 6.032 50.3281 5.75467 50.1148 5.52C49.9121 5.28533 49.6614 5.104 49.3628 4.976C49.0641 4.83733 48.7228 4.768 48.3388 4.768C47.8694 4.768 47.4428 4.85867 47.0588 5.04C46.6854 5.22133 46.3654 5.472 46.0988 5.792C45.8321 6.112 45.6294 6.49067 45.4908 6.928C45.3521 7.35467 45.2828 7.81333 45.2828 8.304C45.2828 8.66667 45.3361 9.008 45.4428 9.328C45.5494 9.648 45.7041 9.92533 45.9068 10.16C46.1201 10.3947 46.3761 10.5813 46.6748 10.72C46.9841 10.848 47.3308 10.912 47.7148 10.912ZM47.6668 12.192C47.0694 12.192 46.5308 12.1013 46.0508 11.92C45.5814 11.728 45.1814 11.4667 44.8508 11.136C44.5201 10.8053 44.2641 10.4107 44.0828 9.952C43.9014 9.48267 43.8108 8.976 43.8108 8.432C43.8108 7.73867 43.9174 7.09333 44.1308 6.496C44.3441 5.888 44.6481 5.36533 45.0428 4.928C45.4481 4.48 45.9334 4.128 46.4988 3.872C47.0641 3.616 47.6934 3.488 48.3868 3.488C48.9734 3.488 49.5068 3.584 49.9868 3.776C50.4668 3.95733 50.8721 4.21333 51.2028 4.544C51.5334 4.87467 51.7894 5.27467 51.9708 5.744C52.1521 6.20267 52.2428 6.704 52.2428 7.248C52.2428 7.94133 52.1361 8.592 51.9228 9.2C51.7094 9.79733 51.4001 10.32 50.9948 10.768C50.6001 11.2053 50.1201 11.552 49.5548 11.808C48.9894 12.064 48.3601 12.192 47.6668 12.192ZM59.7241 5.36C59.4468 5.18933 59.1535 5.05067 58.8441 4.944C58.5455 4.82667 58.2095 4.768 57.8361 4.768C57.3881 4.768 56.9828 4.85867 56.6201 5.04C56.2575 5.22133 55.9481 5.472 55.6921 5.792C55.4361 6.10133 55.2388 6.46933 55.1001 6.896C54.9615 7.32267 54.8921 7.78133 54.8921 8.272C54.8921 9.08267 55.0948 9.728 55.5001 10.208C55.9055 10.6773 56.4601 10.912 57.1641 10.912C57.5695 10.912 57.9268 10.864 58.2361 10.768C58.5455 10.672 58.8281 10.56 59.0841 10.432L59.2601 11.696C58.9935 11.8133 58.6681 11.9253 58.2841 12.032C57.9108 12.1387 57.4575 12.192 56.9241 12.192C56.4015 12.192 55.9268 12.1067 55.5001 11.936C55.0735 11.7547 54.7055 11.4987 54.3961 11.168C54.0868 10.8373 53.8468 10.448 53.6761 10C53.5055 9.54133 53.4201 9.02933 53.4201 8.464C53.4201 7.792 53.5215 7.15733 53.7241 6.56C53.9375 5.96267 54.2415 5.43467 54.6361 4.976C55.0308 4.51733 55.5055 4.15467 56.0601 3.888C56.6148 3.62133 57.2441 3.488 57.9481 3.488C58.4495 3.488 58.8921 3.552 59.2761 3.68C59.6601 3.79733 60.0068 3.94667 60.3161 4.128L59.7241 5.36ZM66.6035 5.488C66.2942 5.27467 65.9475 5.088 65.5635 4.928C65.1902 4.768 64.7635 4.688 64.2835 4.688C63.7715 4.688 63.3768 4.77333 63.0995 4.944C62.8328 5.11467 62.6995 5.33867 62.6995 5.616C62.6995 5.744 62.7208 5.86133 62.7635 5.968C62.8168 6.07467 62.9022 6.18667 63.0195 6.304C63.1475 6.41067 63.3182 6.528 63.5315 6.656C63.7448 6.784 64.0168 6.93333 64.3475 7.104C65.0835 7.47733 65.6222 7.856 65.9635 8.24C66.3155 8.61333 66.4915 9.088 66.4915 9.664C66.4915 10.0907 66.4062 10.464 66.2355 10.784C66.0648 11.0933 65.8248 11.3547 65.5155 11.568C65.2168 11.7707 64.8648 11.9253 64.4595 12.032C64.0542 12.1387 63.6168 12.192 63.1475 12.192C62.4968 12.192 61.9208 12.112 61.4195 11.952C60.9288 11.7813 60.5022 11.5627 60.1395 11.296L60.9555 10.112C61.2435 10.3467 61.5795 10.544 61.9635 10.704C62.3582 10.864 62.7955 10.944 63.2755 10.944C63.8195 10.944 64.2408 10.8427 64.5395 10.64C64.8488 10.4373 65.0035 10.1867 65.0035 9.888C65.0035 9.74933 64.9768 9.62133 64.9235 9.504C64.8808 9.376 64.7955 9.248 64.6675 9.12C64.5395 8.992 64.3635 8.864 64.1395 8.736C63.9262 8.59733 63.6542 8.44267 63.3235 8.272C62.9182 8.06933 62.5822 7.87733 62.3155 7.696C62.0595 7.504 61.8515 7.30667 61.6915 7.104C61.5422 6.90133 61.4355 6.688 61.3715 6.464C61.3075 6.22933 61.2755 5.97333 61.2755 5.696C61.2755 5.376 61.3502 5.08267 61.4995 4.816C61.6488 4.53867 61.8568 4.304 62.1235 4.112C62.3902 3.92 62.7102 3.77067 63.0835 3.664C63.4568 3.54667 63.8675 3.488 64.3155 3.488C64.9128 3.488 65.4462 3.568 65.9155 3.728C66.3955 3.87733 66.8168 4.05867 67.1795 4.272L66.6035 5.488ZM74.1738 12L72.9258 3.792L74.3178 3.6L75.2618 10.4L78.2858 4.272H79.8058L80.6378 10.4L83.9978 3.6L85.1818 4.208L81.1978 12H79.6138L78.7818 5.888L75.7578 12H74.1738ZM88.9104 12.192C88.377 12.192 87.8917 12.1067 87.4544 11.936C87.017 11.7547 86.6384 11.504 86.3184 11.184C86.009 10.8533 85.7637 10.4533 85.5824 9.984C85.4117 9.51467 85.3264 8.98667 85.3264 8.4C85.3264 7.73867 85.433 7.10933 85.6464 6.512C85.8597 5.91467 86.1584 5.392 86.5424 4.944C86.937 4.496 87.4117 4.144 87.9664 3.888C88.521 3.62133 89.1397 3.488 89.8224 3.488C90.281 3.488 90.6917 3.55733 91.0544 3.696C91.417 3.83467 91.721 4.016 91.9664 4.24C92.2224 4.464 92.4144 4.72533 92.5424 5.024C92.681 5.32267 92.7504 5.632 92.7504 5.952C92.7504 6.54933 92.6064 7.03467 92.3184 7.408C92.041 7.78133 91.689 8.08 91.2624 8.304C90.8357 8.51733 90.3664 8.66667 89.8544 8.752C89.3424 8.82667 88.857 8.864 88.3984 8.864C88.1104 8.864 87.8224 8.85333 87.5344 8.832C87.257 8.8 87.0117 8.768 86.7984 8.736C86.8837 9.44 87.129 9.97867 87.5344 10.352C87.9504 10.7253 88.489 10.912 89.1504 10.912C89.6837 10.912 90.1584 10.8427 90.5744 10.704C90.9904 10.5653 91.3424 10.4267 91.6304 10.288L91.7584 11.568C91.4384 11.7173 91.033 11.8613 90.5424 12C90.0624 12.128 89.5184 12.192 88.9104 12.192ZM89.7104 4.704C89.337 4.704 88.985 4.77867 88.6544 4.928C88.3344 5.06667 88.0464 5.264 87.7904 5.52C87.545 5.776 87.337 6.08 87.1664 6.432C87.0064 6.784 86.8944 7.168 86.8304 7.584C87.0757 7.63733 87.321 7.67467 87.5664 7.696C87.8117 7.71733 88.089 7.728 88.3984 7.728C89.305 7.728 90.0144 7.60533 90.5264 7.36C91.049 7.104 91.3104 6.672 91.3104 6.064C91.3104 5.69067 91.161 5.37067 90.8624 5.104C90.5744 4.83733 90.1904 4.704 89.7104 4.704ZM98.4045 8.72C98.4045 7.952 98.5325 7.248 98.7885 6.608C99.0552 5.95733 99.4232 5.40267 99.8925 4.944C100.362 4.48533 100.922 4.128 101.573 3.872C102.223 3.616 102.933 3.488 103.701 3.488C104.33 3.488 104.879 3.552 105.349 3.68C105.829 3.808 106.223 3.936 106.533 4.064L105.525 9.744C105.514 9.79733 105.503 9.86133 105.493 9.936C105.493 10 105.493 10.0693 105.493 10.144C105.493 10.4427 105.578 10.656 105.749 10.784C105.919 10.9013 106.143 10.96 106.421 10.96L105.925 12.08C105.349 12.08 104.906 11.9413 104.597 11.664C104.298 11.3867 104.149 10.944 104.149 10.336C103.85 10.848 103.471 11.2853 103.013 11.648C102.565 12.0107 102.037 12.192 101.429 12.192C101.034 12.192 100.655 12.112 100.293 11.952C99.9298 11.792 99.6045 11.5627 99.3165 11.264C99.0392 10.9653 98.8152 10.6027 98.6445 10.176C98.4845 9.73867 98.4045 9.25333 98.4045 8.72ZM104.949 4.912C104.746 4.848 104.533 4.8 104.309 4.768C104.095 4.72533 103.834 4.704 103.525 4.704C102.97 4.704 102.469 4.8 102.021 4.992C101.573 5.184 101.189 5.45067 100.869 5.792C100.549 6.13333 100.303 6.53867 100.133 7.008C99.9618 7.47733 99.8765 7.98933 99.8765 8.544C99.8765 8.928 99.9298 9.26933 100.037 9.568C100.154 9.856 100.303 10.1013 100.485 10.304C100.666 10.5067 100.869 10.6613 101.093 10.768C101.327 10.864 101.567 10.912 101.812 10.912C102.133 10.912 102.437 10.8267 102.725 10.656C103.023 10.4853 103.29 10.2453 103.525 9.936C103.759 9.616 103.962 9.24267 104.133 8.816C104.303 8.37867 104.431 7.904 104.517 7.392L104.949 4.912ZM109.169 6.016C109.18 5.96267 109.185 5.904 109.185 5.84C109.196 5.76533 109.201 5.69067 109.201 5.616C109.201 5.31733 109.116 5.10933 108.945 4.992C108.775 4.864 108.551 4.8 108.273 4.8L108.769 3.68C109.345 3.68 109.783 3.81333 110.081 4.08C110.38 4.34667 110.529 4.752 110.529 5.296V5.616C110.839 4.848 111.233 4.304 111.713 3.984C112.204 3.65333 112.759 3.488 113.377 3.488C113.623 3.488 113.831 3.50933 114.001 3.552C114.183 3.584 114.332 3.62667 114.449 3.68L113.809 5.088C113.681 5.03467 113.548 4.99733 113.409 4.976C113.271 4.95467 113.111 4.944 112.929 4.944C112.641 4.944 112.353 5.01867 112.065 5.168C111.777 5.30667 111.505 5.54667 111.249 5.888C110.993 6.22933 110.759 6.67733 110.545 7.232C110.332 7.78667 110.156 8.47467 110.017 9.296L109.553 12H108.113L109.169 6.016ZM117.785 12.192C117.252 12.192 116.767 12.1067 116.329 11.936C115.892 11.7547 115.513 11.504 115.193 11.184C114.884 10.8533 114.639 10.4533 114.457 9.984C114.287 9.51467 114.201 8.98667 114.201 8.4C114.201 7.73867 114.308 7.10933 114.521 6.512C114.735 5.91467 115.033 5.392 115.417 4.944C115.812 4.496 116.287 4.144 116.841 3.888C117.396 3.62133 118.015 3.488 118.697 3.488C119.156 3.488 119.567 3.55733 119.929 3.696C120.292 3.83467 120.596 4.016 120.841 4.24C121.097 4.464 121.289 4.72533 121.417 5.024C121.556 5.32267 121.625 5.632 121.625 5.952C121.625 6.54933 121.481 7.03467 121.193 7.408C120.916 7.78133 120.564 8.08 120.137 8.304C119.711 8.51733 119.241 8.66667 118.729 8.752C118.217 8.82667 117.732 8.864 117.273 8.864C116.985 8.864 116.697 8.85333 116.409 8.832C116.132 8.8 115.887 8.768 115.673 8.736C115.759 9.44 116.004 9.97867 116.409 10.352C116.825 10.7253 117.364 10.912 118.025 10.912C118.559 10.912 119.033 10.8427 119.449 10.704C119.865 10.5653 120.217 10.4267 120.505 10.288L120.633 11.568C120.313 11.7173 119.908 11.8613 119.417 12C118.937 12.128 118.393 12.192 117.785 12.192ZM118.585 4.704C118.212 4.704 117.86 4.77867 117.529 4.928C117.209 5.06667 116.921 5.264 116.665 5.52C116.42 5.776 116.212 6.08 116.041 6.432C115.881 6.784 115.769 7.168 115.705 7.584C115.951 7.63733 116.196 7.67467 116.441 7.696C116.687 7.71733 116.964 7.728 117.273 7.728C118.18 7.728 118.889 7.60533 119.401 7.36C119.924 7.104 120.185 6.672 120.185 6.064C120.185 5.69067 120.036 5.37067 119.737 5.104C119.449 4.83733 119.065 4.704 118.585 4.704Z" fill="url(#paint0_linear_9_323)"/>
<defs>
<linearGradient id="paint0_linear_9_323" x1="61.4941" y1="19" x2="61.4941" y2="-4.99754" gradientUnits="userSpaceOnUse">
<stop stop-color="#2B3087"/>
<stop offset="0.82" stop-color="#00B4EC"/>
</linearGradient>
</defs>
</svg>
