<svg width="130" height="136" viewBox="0 0 130 136" fill="none" xmlns="http://www.w3.org/2000/svg">
<g filter="url(#filter0_d_61_132)">
<ellipse cx="64.8519" cy="53.1291" rx="39.8519" ry="42.6096" fill="#FFD100"/>
</g>
<g clip-path="url(#clip0_61_132)">
<path d="M47.5511 56.8472L53.2664 60.094L51.0959 65.3227C50.7451 66.1336 50.7407 67.011 51.0832 67.8241C51.4257 68.6371 52.0969 69.3423 52.9967 69.8345C53.881 70.3425 54.9527 70.6146 56.052 70.6103C57.1513 70.606 58.2195 70.3256 59.0972 69.8108L64.6856 66.6114L70.2757 69.807C71.1584 70.3121 72.2243 70.5864 73.3201 70.5906C74.4159 70.5947 75.4852 70.3285 76.3742 69.8301C77.2632 69.3318 77.9262 68.627 78.2678 67.817C78.6094 67.0071 78.6121 66.1338 78.2754 65.3227L76.1049 60.094L81.8201 56.8472C82.7017 56.3458 83.3571 55.6406 83.6926 54.8322C84.0281 54.0237 84.0266 53.1535 83.6883 52.3458C83.35 51.5381 82.6922 50.8342 81.8089 50.3347C80.9256 49.8352 79.862 49.5655 78.7699 49.5643H71.7494L69.6191 44.3994C69.284 43.5864 68.6257 42.8771 67.7391 42.3739C66.8524 41.8708 65.7832 41.5996 64.6856 41.5996C63.5881 41.5996 62.5189 41.8708 61.6322 42.3739C60.7455 42.8771 60.0872 43.5864 59.7522 44.3994L57.6219 49.5643H50.6078C49.5157 49.5655 48.4521 49.8352 47.5688 50.3347C46.6855 50.8342 46.0277 51.5381 45.6894 52.3458C45.3511 53.1535 45.3496 54.0237 45.6851 54.8322C46.0206 55.6406 46.676 56.3458 47.5576 56.8472H47.5511Z" fill="#191F30"/>
</g>
<defs>
<filter id="filter0_d_61_132" x="0" y="0.519531" width="129.704" height="135.219" filterUnits="userSpaceOnUse" color-interpolation-filters="sRGB">
<feFlood flood-opacity="0" result="BackgroundImageFix"/>
<feColorMatrix in="SourceAlpha" type="matrix" values="0 0 0 0 0 0 0 0 0 0 0 0 0 0 0 0 0 0 127 0" result="hardAlpha"/>
<feOffset dy="15"/>
<feGaussianBlur stdDeviation="12.5"/>
<feColorMatrix type="matrix" values="0 0 0 0 0.133333 0 0 0 0 0.470588 0 0 0 0 0.831373 0 0 0 0.25 0"/>
<feBlend mode="normal" in2="BackgroundImageFix" result="effect1_dropShadow_61_132"/>
<feBlend mode="normal" in="SourceGraphic" in2="effect1_dropShadow_61_132" result="shape"/>
</filter>
<clipPath id="clip0_61_132">
<rect x="45.4346" y="41.5996" width="38.5086" height="29.0108" rx="14.5054" fill="white"/>
</clipPath>
</defs>
</svg>
