<svg width="215" height="103" viewBox="0 0 215 103" fill="none" xmlns="http://www.w3.org/2000/svg">
<path d="M87.0044 50.5439H92.2779V82.9316H87.0044V50.5439ZM96.7603 50.5439C99.4849 50.5439 101.873 50.9834 103.923 51.8623C106.003 52.7119 107.717 53.8545 109.065 55.29C110.442 56.7256 111.467 58.3662 112.141 60.2119C112.815 62.0283 113.152 63.9033 113.152 65.8369C113.152 68.5029 112.859 70.7881 112.273 72.6924C111.716 74.5674 110.999 76.1494 110.12 77.4385C109.241 78.6982 108.245 79.6943 107.131 80.4268C106.047 81.1592 104.993 81.7158 103.967 82.0967C102.942 82.4482 102.004 82.6826 101.155 82.7998C100.305 82.8877 99.6753 82.9316 99.2652 82.9316H94.0796V79.0645H97.5074C101.082 79.0645 103.66 77.9219 105.242 75.6367C106.824 73.3516 107.615 70.041 107.615 65.7051C107.615 64.3574 107.454 63.0244 107.131 61.7061C106.809 60.3877 106.179 59.2012 105.242 58.1465C104.334 57.0625 103.088 56.1982 101.506 55.5537C99.9243 54.8799 97.8736 54.543 95.354 54.543H94.0796V50.5439H96.7603ZM120.007 66.584C120.007 63.9766 120.315 61.6768 120.93 59.6846C121.575 57.6631 122.454 55.9639 123.567 54.5869C124.71 53.1807 126.043 52.1113 127.566 51.3789C129.119 50.6172 130.803 50.1777 132.62 50.0605V54.4551C131.624 54.5723 130.686 54.8799 129.807 55.3779C128.928 55.876 128.167 56.6084 127.522 57.5752C126.877 58.542 126.365 59.7725 125.984 61.2666C125.603 62.7607 125.398 64.5332 125.369 66.584C125.398 68.6641 125.603 70.4512 125.984 71.9453C126.365 73.4102 126.877 74.6406 127.522 75.6367C128.196 76.6328 128.972 77.3945 129.851 77.9219C130.73 78.4199 131.653 78.7129 132.62 78.8008V83.1514C130.833 83.0342 129.163 82.6094 127.61 81.877C126.057 81.1152 124.71 80.0459 123.567 78.6689C122.454 77.2627 121.575 75.5488 120.93 73.5273C120.315 71.5059 120.007 69.1914 120.007 66.584ZM134.377 50.0605C136.165 50.1484 137.82 50.5732 139.343 51.335C140.896 52.0967 142.229 53.1807 143.342 54.5869C144.485 55.9639 145.378 57.6631 146.023 59.6846C146.668 61.6768 146.99 63.9766 146.99 66.584C146.99 69.1914 146.668 71.5059 146.023 73.5273C145.378 75.5488 144.485 77.2627 143.342 78.6689C142.229 80.0459 140.911 81.1152 139.387 81.877C137.864 82.6094 136.194 83.0342 134.377 83.1514V78.8008C135.374 78.6836 136.311 78.376 137.19 77.8779C138.069 77.3506 138.831 76.6035 139.475 75.6367C140.12 74.6406 140.632 73.4102 141.013 71.9453C141.394 70.4512 141.599 68.6641 141.628 66.584C141.599 64.5039 141.394 62.7314 141.013 61.2666C140.632 59.7725 140.105 58.542 139.431 57.5752C138.787 56.5791 138.025 55.832 137.146 55.334C136.267 54.8066 135.344 54.499 134.377 54.4111V50.0605ZM172.698 56.7842C172.024 56.0225 171.306 55.4512 170.544 55.0703C169.783 54.6895 168.962 54.4697 168.084 54.4111V50.0605C171.365 50.207 174.119 51.3643 176.345 53.5322L172.698 56.7842ZM168.084 78.8008C168.962 78.7129 169.783 78.4785 170.544 78.0977C171.335 77.7168 172.053 77.1602 172.698 76.4277L176.345 79.6357C175.232 80.7197 173.987 81.5547 172.61 82.1406C171.233 82.7266 169.724 83.0635 168.084 83.1514V78.8008ZM153.845 66.584C153.845 63.9766 154.153 61.6768 154.768 59.6846C155.413 57.6924 156.292 56.0078 157.405 54.6309C158.518 53.2539 159.822 52.1846 161.316 51.4229C162.839 50.6611 164.495 50.207 166.282 50.0605V54.4551C165.315 54.6016 164.407 54.9385 163.557 55.4658C162.708 55.9639 161.96 56.6963 161.316 57.6631C160.671 58.6299 160.159 59.8604 159.778 61.3545C159.426 62.8193 159.236 64.5625 159.207 66.584C159.236 68.6348 159.426 70.3926 159.778 71.8574C160.159 73.3223 160.671 74.5527 161.316 75.5488C161.96 76.5449 162.708 77.3066 163.557 77.834C164.436 78.3613 165.344 78.6836 166.282 78.8008V83.1074C164.495 82.9902 162.839 82.5508 161.316 81.7891C159.822 81.0273 158.518 79.958 157.405 78.5811C156.292 77.2041 155.413 75.5195 154.768 73.5273C154.153 71.5059 153.845 69.1914 153.845 66.584ZM198.801 55.5537C198.655 55.4951 198.479 55.3926 198.274 55.2461C198.069 55.0996 197.776 54.9678 197.395 54.8506C197.014 54.7041 196.531 54.5869 195.945 54.499C195.359 54.4111 194.612 54.3965 193.704 54.4551V50.0166C194.993 50.0459 196.296 50.1924 197.615 50.4561C198.962 50.6904 200.046 51.0713 200.867 51.5986C200.691 51.9795 200.486 52.4043 200.251 52.873C200.017 53.3125 199.797 53.7373 199.592 54.1475C199.387 54.5283 199.211 54.8506 199.065 55.1143C198.918 55.3779 198.831 55.5244 198.801 55.5537ZM183.64 59.0693C183.64 57.7803 183.86 56.623 184.299 55.5977C184.739 54.5723 185.325 53.6787 186.057 52.917C186.819 52.126 187.698 51.5107 188.694 51.0713C189.719 50.6025 190.789 50.2949 191.902 50.1484V54.7627C190.964 55.085 190.188 55.6562 189.573 56.4766C188.958 57.2676 188.65 58.0732 188.65 58.8936C188.65 60.0361 188.958 60.959 189.573 61.6621C190.188 62.3652 190.964 62.9805 191.902 63.5078V68.5176C190.935 68.0488 189.968 67.5508 189.001 67.0234C188.035 66.4668 187.156 65.8223 186.365 65.0898C185.574 64.3574 184.915 63.5078 184.387 62.541C183.889 61.5742 183.64 60.417 183.64 59.0693ZM184.343 76.999C184.753 77.2334 185.266 77.4678 185.881 77.7021C186.526 77.9072 187.185 78.1123 187.859 78.3174C188.533 78.4932 189.207 78.6396 189.88 78.7568C190.554 78.874 191.184 78.9326 191.77 78.9326H191.902V83.1074H191.814C191.111 83.1074 190.378 83.0635 189.617 82.9756C188.884 82.917 188.137 82.7998 187.376 82.624C186.614 82.4482 185.881 82.2139 185.178 81.9209C184.504 81.5986 183.918 81.2178 183.42 80.7783L184.343 76.999ZM193.704 64.3867C194.67 64.8262 195.652 65.2949 196.648 65.793C197.673 66.291 198.596 66.9062 199.417 67.6387C200.237 68.3418 200.911 69.2061 201.438 70.2314C201.965 71.2568 202.229 72.5312 202.229 74.0547C202.229 75.1094 202.024 76.1348 201.614 77.1309C201.233 78.127 200.676 79.0352 199.944 79.8555C199.241 80.6465 198.362 81.3203 197.307 81.877C196.252 82.4336 195.051 82.7998 193.704 82.9756V78.7568C196.106 78.1709 197.307 76.5742 197.307 73.9668C197.307 72.9414 196.97 72.0918 196.296 71.418C195.623 70.7441 194.758 70.1143 193.704 69.5283V64.3867Z" fill="white"/>
<path d="M30.4344 16.9072H0L32.1252 82.8485H62.5597L30.4344 16.9072Z" fill="#0B92D2"/>
<path d="M62.5597 0H92.9941L62.5597 82.8493H32.1253L62.5597 0Z" fill="#0E763F"/>
<path fill-rule="evenodd" clip-rule="evenodd" d="M45.2073 47.2334L32.124 82.849H62.5585L45.2073 47.2334Z" fill="#FFD100"/>
<path fill-rule="evenodd" clip-rule="evenodd" d="M32.124 82.849H62.5585L45.2073 47.2334L32.124 82.849Z" fill="#FFD100"/>
</svg>
