<svg width="42" height="42" viewBox="0 0 42 42" fill="none" xmlns="http://www.w3.org/2000/svg">
<g clip-path="url(#clip0_71_268)">
<path fill-rule="evenodd" clip-rule="evenodd" d="M17.7577 7.10602C18.5155 7.70102 18.9512 8.58827 18.9512 9.54027C18.9512 17.214 19.2102 19.279 20.269 20.0648C20.9637 20.5775 21.9157 20.5723 25.1235 20.483C26.6145 20.4393 28.5237 20.3833 31.0245 20.3833C32.022 20.3833 32.9617 20.8103 33.5987 21.554C34.1902 22.2453 34.4492 23.1483 34.3127 24.0373C33.1437 31.606 26.7037 37.1028 19.0002 37.1028C10.4532 37.1028 3.50049 30.15 3.50049 21.6048C3.50049 14.8288 8.62449 8.05277 14.9227 6.50227C15.9062 6.26252 16.9632 6.48652 17.7577 7.10602ZM15.719 9.03102C15.663 9.03102 15.607 9.03802 15.551 9.05202C10.3535 10.3313 6.12549 15.9628 6.12549 21.6048C6.12549 28.7028 11.9005 34.4778 19.0002 34.4778C25.4 34.4778 30.748 29.919 31.7175 23.6365C31.7245 23.584 31.749 23.4318 31.6055 23.262C31.469 23.1028 31.252 23.0083 31.0245 23.0083C28.5552 23.0083 26.6705 23.0643 25.1987 23.1063C21.6357 23.213 20.1622 23.2533 18.7062 22.1735C16.6243 20.6311 16.3505 18.0382 16.3279 10.7618L16.3262 9.54027C16.3262 9.39327 16.2632 9.27077 16.1372 9.17277C16.02 9.08002 15.8712 9.03102 15.719 9.03102ZM35.0887 4.53405C38.1652 7.6088 40.1182 11.6495 40.0622 14.8293C40.0412 16.07 39.1399 17.106 37.9219 17.2898C35.5454 17.6485 32.7629 17.757 30.3007 17.757C28.0082 17.757 25.9904 17.6643 24.8302 17.5978C23.3707 17.512 22.2087 16.3483 22.1247 14.8888C21.9882 12.5753 21.6924 6.69705 21.9024 2.15055C21.9602 0.829298 23.0277 -0.222452 24.3332 -0.245202C28.0729 -0.353702 31.9317 1.3823 35.0887 4.53405ZM24.5572 2.37805H24.5187C24.3262 6.7863 24.6114 12.4808 24.7444 14.7365C24.7514 14.8713 24.8494 14.9693 24.9824 14.9763C26.7814 15.0795 32.9799 15.3665 37.4372 14.7103C37.4477 12.2533 35.7659 8.9213 33.2337 6.3908C30.6367 3.7973 27.5637 2.37805 24.5572 2.37805Z" fill="#8D8598"/>
</g>
<defs>
<clipPath id="clip0_71_268">
<rect width="42" height="42" fill="white"/>
</clipPath>
</defs>
</svg>
