<svg width="40" height="40" viewBox="0 0 40 40" fill="none" xmlns="http://www.w3.org/2000/svg">
<path fill-rule="evenodd" clip-rule="evenodd" d="M22.8624 26.5819C25.2117 26.5819 27.1239 28.3917 27.1239 30.6162V36.3376C27.1239 36.8157 27.5259 37.1988 28.041 37.21H31.76C34.6907 37.21 37.0732 34.9668 37.0732 32.2103V15.9835C37.0595 15.0349 36.5854 14.1421 35.7717 13.5488L22.9073 3.76885C21.1805 2.46498 18.7649 2.46498 17.0322 3.77257L4.25561 13.5451C3.41073 14.157 2.93659 15.0498 2.92683 16.0152V32.2103C2.92683 34.9668 5.30927 37.21 8.24 37.21H11.9941C12.5229 37.21 12.9522 36.8101 12.9522 36.319C12.9522 36.2112 12.9659 36.1033 12.9893 36.001V30.6162C12.9893 28.4047 14.8898 26.5968 17.2215 26.5819H22.8624ZM31.76 40H28.0059C25.8556 39.9516 24.1971 38.3427 24.1971 36.3376V30.6162C24.1971 29.9299 23.598 29.3719 22.8624 29.3719H17.2312C16.5112 29.3756 15.9161 29.9355 15.9161 30.6162V36.319C15.9161 36.4585 15.8966 36.5925 15.8556 36.7189C15.6449 38.5604 13.9941 40 11.9941 40H8.24C3.69561 40 0 36.505 0 32.2103V16.0021C0.0195122 14.1533 0.913171 12.4607 2.45659 11.3465L15.2078 1.59077C18.0156 -0.529638 21.9278 -0.529638 24.7298 1.58705L37.5727 11.3521C39.081 12.4477 39.9746 14.1365 40 15.9631V32.2103C40 36.505 36.3044 40 31.76 40Z" fill="#8D8598"/>
</svg>
