<svg width="35" height="34" viewBox="0 0 35 34" fill="none" xmlns="http://www.w3.org/2000/svg">
<path fill-rule="evenodd" clip-rule="evenodd" d="M18.8842 0C14.7707 0 11.4241 3.34662 11.4241 7.4601V9.02746C11.4241 9.72369 11.9891 10.2887 12.6854 10.2887C13.3816 10.2887 13.9467 9.72369 13.9467 9.02746V7.4601C13.9467 4.73571 16.1615 2.52258 18.8842 2.52258H27.0825C29.8019 2.52258 32.015 4.73571 32.015 7.4601V26.1759C32.015 28.8986 29.8019 31.1118 27.0825 31.1118H18.8657C16.1548 31.1118 13.9467 28.9054 13.9467 26.1944V24.6086C13.9467 23.9123 13.3816 23.3473 12.6854 23.3473C11.9891 23.3473 11.4241 23.9123 11.4241 24.6086V26.1944C11.4241 30.2978 14.764 33.6343 18.8657 33.6343H27.0825C31.1927 33.6343 34.5376 30.2894 34.5376 26.1759V7.4601C34.5376 3.34662 31.1927 0 27.0825 0H18.8842ZM5.29573 11.022L0.371666 15.9242C0.327736 15.9678 0.288403 16.0131 0.252403 16.0611L0.371666 15.9242C0.31208 15.9829 0.259094 16.0471 0.21312 16.1156C0.192886 16.1466 0.173367 16.1786 0.155277 16.2116C0.140598 16.2374 0.12709 16.2642 0.114567 16.2916C0.103951 16.3157 0.0937576 16.3399 0.0843124 16.3644C0.0716324 16.3964 0.0605316 16.4292 0.0507927 16.4625C0.043457 16.4887 0.0367088 16.5149 0.0307961 16.5414C0.0232849 16.5735 0.0173683 16.6058 0.0127144 16.6384C0.0100822 16.6595 0.00750732 16.6817 0.00551605 16.7041C0.00166702 16.7424 7.62939e-06 16.7797 7.62939e-06 16.8172L0.00857925 16.9214L0.0120316 16.9882C0.0124207 16.9911 0.0128174 16.9939 0.0132217 16.9968L7.62939e-06 16.8172C7.62939e-06 16.9105 0.0103416 17.003 0.0304337 17.0928C0.0367088 17.1194 0.0434532 17.1456 0.0510063 17.1714C0.0605316 17.2051 0.0716324 17.238 0.0840683 17.2703C0.0937576 17.2945 0.103951 17.3186 0.114861 17.3424C0.12709 17.3701 0.140598 17.397 0.155071 17.4234C0.173367 17.4557 0.192886 17.4878 0.213749 17.5189C0.225555 17.5373 0.238503 17.5555 0.251957 17.5734C0.291996 17.626 0.335629 17.6756 0.382839 17.7215L5.29573 22.614C5.54127 22.8596 5.86415 22.9823 6.18536 22.9823C6.50825 22.9823 6.83282 22.8596 7.07835 22.6107C7.56941 22.1163 7.56773 21.3191 7.07499 20.8281L4.31714 18.0785H21.5114C22.2076 18.0785 22.7726 17.5134 22.7726 16.8172C22.7726 16.1209 22.2076 15.5559 21.5114 15.5559H4.31378L7.07499 12.808C7.56773 12.3169 7.5711 11.5198 7.07835 11.0253C6.58729 10.5309 5.79016 10.5309 5.29573 11.022Z" fill="#8D8598"/>
</svg>
