<svg width="41" height="42" viewBox="0 0 41 42" fill="none" xmlns="http://www.w3.org/2000/svg">
<path d="M30.584 0H9.416C3.6725 0 -1 4.6725 -1 10.416V21.084C-1 26.8275 3.6725 31.5 9.416 31.5H11.25V40.25C11.25 41.0743 11.8239 41.7848 12.629 41.9598C12.7533 41.9878 12.8775 42.0001 13 42.0001C13.6738 42.0001 14.3038 41.6099 14.5925 40.9763C16.9357 35.8312 22.4937 32.3488 23.9568 31.5H30.584C36.3275 31.5 41 26.8275 41 21.084V10.416C41 4.6725 36.3275 0 30.584 0ZM9.5 19.25C7.56628 19.25 5.99997 17.6838 5.99997 15.75C5.99997 13.8162 7.5662 12.25 9.5 12.25C11.4337 12.25 13 13.8162 13 15.75C13 17.6838 11.4337 19.25 9.5 19.25ZM20 19.25C18.0663 19.25 16.5 17.6838 16.5 15.75C16.5 13.8162 18.0662 12.25 20 12.25C21.9338 12.25 23.5 13.8162 23.5 15.75C23.5 17.6838 21.9337 19.25 20 19.25ZM30.5 19.25C28.5663 19.25 27 17.6838 27 15.75C27 13.8162 28.5662 12.25 30.5 12.25C32.4337 12.25 34 13.8162 34 15.75C34 17.6838 32.4337 19.25 30.5 19.25Z" fill="#8D8598"/>
</svg>
