<svg width="40" height="44" viewBox="0 0 40 44" fill="none" xmlns="http://www.w3.org/2000/svg">
<path fill-rule="evenodd" clip-rule="evenodd" d="M21.1792 0C22.6562 0 24.0919 0.624294 25.1212 1.70938C26.1485 2.80083 26.7157 4.29786 26.6724 5.81613C26.6765 6.158 26.7859 6.55297 26.9839 6.89909C27.3119 7.47242 27.8296 7.87587 28.4443 8.0415C29.059 8.19864 29.7026 8.1137 30.2493 7.78032C32.8896 6.22808 36.2499 7.15815 37.7578 9.85493L39.0429 12.1461C39.0759 12.2077 39.1048 12.2672 39.1295 12.3287C40.4951 14.9852 39.5833 18.3296 37.0461 19.8564C36.6769 20.0751 36.3778 20.3809 36.1715 20.7503C35.8518 21.3216 35.7631 22.0011 35.924 22.6254C36.089 23.2624 36.483 23.7911 37.0379 24.1181C38.29 24.8592 39.2244 26.1078 39.5978 27.5496C39.9711 28.9893 39.7669 30.5522 39.0388 31.8411L37.6691 34.1897C36.1612 36.8567 32.8009 37.7804 30.1874 36.226C29.8388 36.0201 29.4365 35.9075 29.0363 35.8969H29.024C28.4278 35.8969 27.8152 36.1581 27.3696 36.6146C26.9179 37.0797 26.6703 37.6997 26.6745 38.358C26.66 41.4773 24.195 44 21.1792 44H18.5946C15.5643 44 13.0993 41.4646 13.0993 38.3453C13.0952 37.9609 12.9879 37.5617 12.7878 37.2156C12.464 36.6338 11.94 36.2176 11.3356 36.0519C10.7354 35.8863 10.0773 35.9776 9.53689 36.3004C8.24146 37.0436 6.71707 37.2241 5.32263 36.8206C3.93025 36.415 2.72765 35.4298 2.02218 34.1238L0.732946 31.8369C-0.774945 29.1443 0.122364 25.6937 2.73384 24.1394C3.47438 23.6998 3.93438 22.8802 3.93438 22.0011C3.93438 21.122 3.47438 20.3002 2.73384 19.8606C0.120301 18.2978 -0.774945 14.8387 0.730884 12.1461L2.12945 9.78273C3.61671 7.11993 6.97904 6.18136 9.60083 7.73148C9.9577 7.9502 10.3455 8.06061 10.7395 8.06486C12.0246 8.06486 13.0993 6.97341 13.1199 5.63139C13.1117 4.15134 13.6789 2.73076 14.7124 1.65841C15.75 0.588196 17.1279 0 18.5946 0H21.1792ZM21.1792 3.18517H18.5946C17.9551 3.18517 17.3569 3.44211 16.9051 3.90502C16.4555 4.37006 16.21 4.98798 16.2141 5.64625C16.1708 8.75074 13.7058 11.25 10.7209 11.25C9.76379 11.2394 8.84173 10.974 8.04137 10.4813C6.91716 9.82308 5.44846 10.2287 4.79043 11.4072L3.39393 13.7706C2.75447 14.913 3.1464 16.4228 4.28505 17.1044C5.97447 18.1109 7.02855 19.988 7.02855 22.0011C7.02855 24.0141 5.97447 25.8891 4.28093 26.8977C3.14846 27.573 2.75653 29.0743 3.4125 30.2422L4.71411 32.5525C5.0359 33.1492 5.56191 33.5802 6.17043 33.7565C6.77689 33.9306 7.44523 33.8563 8.00218 33.5378C8.8211 33.043 9.77411 32.7861 10.7312 32.7861C11.2036 32.7861 11.676 32.8476 12.1381 32.975C13.5325 33.3615 14.7433 34.3213 15.4612 35.6102C15.9274 36.4193 16.1852 37.3642 16.1935 38.3283C16.1935 39.7085 17.2703 40.8148 18.5946 40.8148H21.1792C22.4973 40.8148 23.5741 39.7149 23.5803 38.358C23.572 36.8588 24.1414 35.434 25.1831 34.3617C26.2103 33.3042 27.646 32.6693 29.0817 32.7117C30.0224 32.7351 30.9279 32.9963 31.7262 33.4634C32.8752 34.1408 34.3418 33.7374 35.006 32.5695L36.3757 30.2188C36.681 29.6773 36.7697 28.9978 36.6067 28.3714C36.4459 27.745 36.0415 27.2014 35.497 26.8807C34.2222 26.1248 33.3125 24.9059 32.935 23.445C32.5616 22.0117 32.7659 20.4467 33.494 19.1578C33.9684 18.3084 34.6636 17.5928 35.497 17.1001C36.615 16.427 37.0069 14.9215 36.3571 13.7493C36.3303 13.7026 36.3056 13.6538 36.285 13.6028L35.0762 11.4454C34.4181 10.2669 32.9536 9.8613 31.8046 10.5344C30.5628 11.2904 29.0858 11.507 27.6667 11.1226C26.2495 10.7447 25.0614 9.82095 24.3208 8.51716C23.8464 7.70175 23.5885 6.75257 23.5803 5.7864C23.5989 5.06018 23.3513 4.40828 22.9016 3.93051C22.454 3.45485 21.8249 3.18517 21.1792 3.18517ZM19.896 14.8091C23.7472 14.8091 26.8805 18.0368 26.8805 22.0013C26.8805 25.9658 23.7472 29.1892 19.896 29.1892C16.0448 29.1892 12.9114 25.9658 12.9114 22.0013C12.9114 18.0368 16.0448 14.8091 19.896 14.8091ZM19.896 17.9943C17.7507 17.9943 16.0056 19.7929 16.0056 22.0013C16.0056 24.2097 17.7507 26.004 19.896 26.004C22.0413 26.004 23.7864 24.2097 23.7864 22.0013C23.7864 19.7929 22.0413 17.9943 19.896 17.9943Z" fill="#8D8598"/>
</svg>
